<?xml version="1.0" encoding="UTF-8" standalone="no"?>
<svg
   xmlns:dc="http://purl.org/dc/elements/1.1/"
   xmlns:cc="http://creativecommons.org/ns#"
   xmlns:rdf="http://www.w3.org/1999/02/22-rdf-syntax-ns#"
   xmlns:svg="http://www.w3.org/2000/svg"
   xmlns="http://www.w3.org/2000/svg"
   xmlns:sodipodi="http://sodipodi.sourceforge.net/DTD/sodipodi-0.dtd"
   xmlns:inkscape="http://www.inkscape.org/namespaces/inkscape"
   aria-hidden="true"
   focusable="false"
   data-prefix="fas"
   data-icon="eye"
   class="svg-inline--fa fa-eye fa-w-18"
   role="img"
   viewBox="0 0 576 512"
   version="1.1"
   id="svg905"
   sodipodi:docname="eye-right.svg"
   inkscape:version="0.92.3 (2405546, 2018-03-11)">
  <metadata
     id="metadata911">
    <rdf:RDF>
      <cc:Work
         rdf:about="">
        <dc:format>image/svg+xml</dc:format>
        <dc:type
           rdf:resource="http://purl.org/dc/dcmitype/StillImage" />
        <dc:title />
      </cc:Work>
    </rdf:RDF>
  </metadata>
  <defs
     id="defs909" />
  <sodipodi:namedview
     pagecolor="#ffffff"
     bordercolor="#666666"
     borderopacity="1"
     objecttolerance="10"
     gridtolerance="10"
     guidetolerance="10"
     inkscape:pageopacity="0"
     inkscape:pageshadow="2"
     inkscape:window-width="1916"
     inkscape:window-height="1033"
     id="namedview907"
     showgrid="false"
     inkscape:zoom="0.60490775"
     inkscape:cx="-148.57238"
     inkscape:cy="53.348734"
     inkscape:window-x="0"
     inkscape:window-y="22"
     inkscape:window-maximized="0"
     inkscape:current-layer="layer1" />
  <g
     inkscape:groupmode="layer"
     id="layer1"
     inkscape:label="Layer 1"
     style="display:inline">
    <path
       style="fill:#e6e6e6"
       d="M 572.52,241.4 C 518.29,135.59 410.93,64 288,64 165.07,64 57.68,135.64 3.48,241.41 c -4.6392709,9.177 -4.6392709,20.013 0,29.19 C 57.71,376.41 165.07,448 288,448 c 122.93,0 230.32,-71.64 284.52,-177.41 4.63927,-9.177 4.63927,-20.013 0,-29.19 z M 288,400 C 229.7575,400 177.24952,364.91533 154.96235,311.10724 132.67521,257.29926 144.99831,195.36529 186.1818,154.1818 227.36529,112.99831 289.29926,100.67521 343.10724,122.96235 396.91533,145.24952 432,197.7575 432,256 c 0.0387,79.54503 -64.45497,144.0387 -144,144 z"
       id="path903"
       inkscape:connector-curvature="0"
       sodipodi:nodetypes="csccscccssscc" />
  </g>
  <g
     inkscape:groupmode="layer"
     id="layer2"
     inkscape:label="Layer 2"
     style="display:inline">
    <path
       style="fill:#e6e6e6;fill-opacity:1;stroke:none;stroke-width:3.27020359;stroke-miterlimit:4;stroke-dasharray:none"
       d="M 288.73047 159.5625 A 95.853874 95.853882 0 0 0 192.87695 255.41602 A 95.853874 95.853882 0 0 0 288.73047 351.26953 A 95.853874 95.853882 0 0 0 384.58398 255.41602 A 95.853874 95.853882 0 0 0 381.58398 231.97266 A 46.757992 48.511414 0 0 1 352.4375 242.55664 A 46.757992 48.511414 0 0 1 305.67969 194.04492 A 46.757992 48.511414 0 0 1 316.08789 163.5957 A 95.853874 95.853882 0 0 0 288.73047 159.5625 z "
       id="path913" />
  </g>
</svg>
